<svg xmlns="http://www.w3.org/2000/svg" xmlns:xlink="http://www.w3.org/1999/xlink" id="processonSvg1000" viewBox="-0.5 3.0 873.5 751.0" width="873.5" height="751.0"><defs id="ProcessOnDefs1001"><marker id="ProcessOnMarker1015" markerUnits="userSpaceOnUse" orient="auto" markerWidth="16.23606797749979" markerHeight="10.550836550532098" viewBox="-1.0 -1.3763819204711736 16.23606797749979 10.550836550532098" refX="-1.0" refY="3.8990363547948754"><path id="ProcessOnPath1016" d="M12.0 3.8990363547948754L0.0 7.798072709589751V0.0Z" stroke="#323232" stroke-width="2.0" fill="#323232" transform="matrix(1.0,0.0,0.0,1.0,0.0,0.0)"/></marker><marker id="ProcessOnMarker1026" markerUnits="userSpaceOnUse" orient="auto" markerWidth="16.23606797749979" markerHeight="10.550836550532098" viewBox="-1.0 -1.3763819204711736 16.23606797749979 10.550836550532098" refX="-1.0" refY="3.8990363547948754"><path id="ProcessOnPath1027" d="M12.0 3.8990363547948754L0.0 7.798072709589751V0.0Z" stroke="#323232" stroke-width="2.0" fill="#323232" transform="matrix(1.0,0.0,0.0,1.0,0.0,0.0)"/></marker><marker id="ProcessOnMarker1037" markerUnits="userSpaceOnUse" orient="auto" markerWidth="16.23606797749979" markerHeight="10.550836550532098" viewBox="-1.0 -1.3763819204711736 16.23606797749979 10.550836550532098" refX="-1.0" refY="3.8990363547948754"><path id="ProcessOnPath1038" d="M12.0 3.8990363547948754L0.0 7.798072709589751V0.0Z" stroke="#323232" stroke-width="2.0" fill="#323232" transform="matrix(1.0,0.0,0.0,1.0,0.0,0.0)"/></marker><marker id="ProcessOnMarker1044" markerUnits="userSpaceOnUse" orient="auto" markerWidth="16.23606797749979" markerHeight="10.550836550532098" viewBox="-1.0 -1.3763819204711736 16.23606797749979 10.550836550532098" refX="-1.0" refY="3.8990363547948754"><path id="ProcessOnPath1045" d="M12.0 3.8990363547948754L0.0 7.798072709589751V0.0Z" stroke="#323232" stroke-width="2.0" fill="#323232" transform="matrix(1.0,0.0,0.0,1.0,0.0,0.0)"/></marker><marker id="ProcessOnMarker1059" markerUnits="userSpaceOnUse" orient="auto" markerWidth="16.23606797749979" markerHeight="10.550836550532098" viewBox="-1.0 -1.3763819204711736 16.23606797749979 10.550836550532098" refX="-1.0" refY="3.8990363547948754"><path id="ProcessOnPath1060" d="M12.0 3.8990363547948754L0.0 7.798072709589751V0.0Z" stroke="#323232" stroke-width="2.0" fill="#323232" transform="matrix(1.0,0.0,0.0,1.0,0.0,0.0)"/></marker><marker id="ProcessOnMarker1070" markerUnits="userSpaceOnUse" orient="auto" markerWidth="16.23606797749979" markerHeight="10.550836550532098" viewBox="-1.0 -1.3763819204711736 16.23606797749979 10.550836550532098" refX="-1.0" refY="3.8990363547948754"><path id="ProcessOnPath1071" d="M12.0 3.8990363547948754L0.0 7.798072709589751V0.0Z" stroke="#323232" stroke-width="2.0" fill="#323232" transform="matrix(1.0,0.0,0.0,1.0,0.0,0.0)"/></marker><marker id="ProcessOnMarker1081" markerUnits="userSpaceOnUse" orient="auto" markerWidth="16.23606797749979" markerHeight="10.550836550532098" viewBox="-1.0 -1.3763819204711736 16.23606797749979 10.550836550532098" refX="-1.0" refY="3.8990363547948754"><path id="ProcessOnPath1082" d="M12.0 3.8990363547948754L0.0 7.798072709589751V0.0Z" stroke="#323232" stroke-width="2.0" fill="#323232" transform="matrix(1.0,0.0,0.0,1.0,0.0,0.0)"/></marker><marker id="ProcessOnMarker1088" markerUnits="userSpaceOnUse" orient="auto" markerWidth="16.23606797749979" markerHeight="10.550836550532098" viewBox="-1.0 -1.3763819204711736 16.23606797749979 10.550836550532098" refX="-1.0" refY="3.8990363547948754"><path id="ProcessOnPath1089" d="M12.0 3.8990363547948754L0.0 7.798072709589751V0.0Z" stroke="#323232" stroke-width="2.0" fill="#323232" transform="matrix(1.0,0.0,0.0,1.0,0.0,0.0)"/></marker><marker id="ProcessOnMarker1095" markerUnits="userSpaceOnUse" orient="auto" markerWidth="16.23606797749979" markerHeight="10.550836550532098" viewBox="-1.0 -1.3763819204711736 16.23606797749979 10.550836550532098" refX="-1.0" refY="3.8990363547948754"><path id="ProcessOnPath1096" d="M12.0 3.8990363547948754L0.0 7.798072709589751V0.0Z" stroke="#323232" stroke-width="2.0" fill="#323232" transform="matrix(1.0,0.0,0.0,1.0,0.0,0.0)"/></marker><marker id="ProcessOnMarker1108" markerUnits="userSpaceOnUse" orient="auto" markerWidth="16.23606797749979" markerHeight="10.550836550532098" viewBox="-1.0 -1.3763819204711736 16.23606797749979 10.550836550532098" refX="-1.0" refY="3.8990363547948754"><path id="ProcessOnPath1109" d="M12.0 3.8990363547948754L0.0 7.798072709589751V0.0Z" stroke="#323232" stroke-width="2.0" fill="#323232" transform="matrix(1.0,0.0,0.0,1.0,0.0,0.0)"/></marker><marker id="ProcessOnMarker1120" markerUnits="userSpaceOnUse" orient="auto" markerWidth="16.23606797749979" markerHeight="10.550836550532098" viewBox="-1.0 -1.3763819204711736 16.23606797749979 10.550836550532098" refX="-1.0" refY="3.8990363547948754"><path id="ProcessOnPath1121" d="M12.0 3.8990363547948754L0.0 7.798072709589751V0.0Z" stroke="#323232" stroke-width="2.0" fill="#323232" transform="matrix(1.0,0.0,0.0,1.0,0.0,0.0)"/></marker><marker id="ProcessOnMarker1133" markerUnits="userSpaceOnUse" orient="auto" markerWidth="16.23606797749979" markerHeight="10.550836550532098" viewBox="-1.0 -1.3763819204711736 16.23606797749979 10.550836550532098" refX="-1.0" refY="3.8990363547948754"><path id="ProcessOnPath1134" d="M12.0 3.8990363547948754L0.0 7.798072709589751V0.0Z" stroke="#323232" stroke-width="2.0" fill="#323232" transform="matrix(1.0,0.0,0.0,1.0,0.0,0.0)"/></marker><marker id="ProcessOnMarker1140" markerUnits="userSpaceOnUse" orient="auto" markerWidth="16.23606797749979" markerHeight="10.550836550532098" viewBox="-1.0 -1.3763819204711736 16.23606797749979 10.550836550532098" refX="-1.0" refY="3.8990363547948754"><path id="ProcessOnPath1141" d="M12.0 3.8990363547948754L0.0 7.798072709589751V0.0Z" stroke="#323232" stroke-width="2.0" fill="#323232" transform="matrix(1.0,0.0,0.0,1.0,0.0,0.0)"/></marker><marker id="ProcessOnMarker1147" markerUnits="userSpaceOnUse" orient="auto" markerWidth="16.23606797749979" markerHeight="10.550836550532098" viewBox="-1.0 -1.3763819204711736 16.23606797749979 10.550836550532098" refX="-1.0" refY="3.8990363547948754"><path id="ProcessOnPath1148" d="M12.0 3.8990363547948754L0.0 7.798072709589751V0.0Z" stroke="#323232" stroke-width="2.0" fill="#323232" transform="matrix(1.0,0.0,0.0,1.0,0.0,0.0)"/></marker><marker id="ProcessOnMarker1162" markerUnits="userSpaceOnUse" orient="auto" markerWidth="16.23606797749979" markerHeight="10.550836550532098" viewBox="-1.0 -1.3763819204711736 16.23606797749979 10.550836550532098" refX="-1.0" refY="3.8990363547948754"><path id="ProcessOnPath1163" d="M12.0 3.8990363547948754L0.0 7.798072709589751V0.0Z" stroke="#323232" stroke-width="2.0" fill="#323232" transform="matrix(1.0,0.0,0.0,1.0,0.0,0.0)"/></marker></defs><g id="ProcessOnG1002"><path id="ProcessOnPath1003" d="M-0.5 3.0H873.0V754.0H-0.5V3.0Z" fill="none"/><g id="ProcessOnG1004"><g id="ProcessOnG1005" transform="matrix(1.0,0.0,0.0,1.0,463.5,149.0)" opacity="1.0"><path id="ProcessOnPath1006" d="M0.0 4.0Q0.0 0.0 4.0 0.0L130.0 0.0Q134.0 0.0 134.0 4.0L134.0 48.0Q134.0 52.0 130.0 52.0L4.0 52.0Q0.0 52.0 0.0 48.0Z" stroke="#323232" stroke-width="2.0" stroke-dasharray="none" opacity="1.0" fill="#ffffff"/><g id="ProcessOnG1007" transform="matrix(1.0,0.0,0.0,1.0,10.0,17.875)"><text id="ProcessOnText1008" fill="#000000" font-size="13" x="56.0" y="13.325" font-family="微软雅黑" font-weight="normal" font-style="normal" text-decoration="none" family="微软雅黑" text-anchor="middle" size="13">Object.prototype</text></g></g><g id="ProcessOnG1009" transform="matrix(1.0,0.0,0.0,1.0,502.0,23.0)" opacity="1.0"><path id="ProcessOnPath1010" d="M0.0 25.5C0.0 -8.5 57.0 -8.5 57.0 25.5C57.0 59.5 0.0 59.5 0.0 25.5Z" stroke="#323232" stroke-width="2.0" stroke-dasharray="none" opacity="1.0" fill="#ffffff"/><g id="ProcessOnG1011" transform="matrix(1.0,0.0,0.0,1.0,10.0,17.375)"><text id="ProcessOnText1012" fill="#000000" font-size="13" x="17.5" y="13.325" font-family="微软雅黑" font-weight="normal" font-style="normal" text-decoration="none" family="微软雅黑" text-anchor="middle" size="13">null</text></g></g><g id="ProcessOnG1013"><path id="ProcessOnPath1014" d="M530.5 149.0L530.5 111.5L530.5 111.5L530.5 89.23606797749979" stroke="#323232" stroke-width="2.0" stroke-dasharray="none" fill="none" marker-end="url(#ProcessOnMarker1015)"/><g id="ProcessOnG1017" transform="matrix(1.0,0.0,0.0,1.0,530.5,110.99303398874989)"><path id="ProcessOnPath1018" d="M0 0H58.0V16.25H0Z" fill="#fff" transform="matrix(1.0,0.0,0.0,1.0,-29.0,0.0)"/><text id="ProcessOnText1019" fill="#000000" font-size="13" x="0.0" y="13.325" font-family="微软雅黑" font-weight="normal" font-style="normal" text-decoration="none" family="微软雅黑" text-anchor="middle" size="13">__proto__</text></g></g><g id="ProcessOnG1020" transform="matrix(1.0,0.0,0.0,1.0,127.0,149.5)" opacity="1.0"><path id="ProcessOnPath1021" d="M0.0 4.0Q0.0 0.0 4.0 0.0L144.0 0.0Q148.0 0.0 148.0 4.0L148.0 47.0Q148.0 51.0 144.0 51.0L4.0 51.0Q0.0 51.0 0.0 47.0Z" stroke="#323232" stroke-width="2.0" stroke-dasharray="none" opacity="1.0" fill="#ffffff"/><g id="ProcessOnG1022" transform="matrix(1.0,0.0,0.0,1.0,10.0,17.375)"><text id="ProcessOnText1023" fill="#000000" font-size="13" x="63.0" y="13.325" font-family="微软雅黑" font-weight="normal" font-style="normal" text-decoration="none" family="微软雅黑" text-anchor="middle" size="13">Function.prototype</text></g></g><g id="ProcessOnG1024"><path id="ProcessOnPath1025" d="M275.0 175.0L369.25 175.0L369.25 175.0L448.2639320225002 175.0" stroke="#323232" stroke-width="2.0" stroke-dasharray="none" fill="none" marker-end="url(#ProcessOnMarker1026)"/><g id="ProcessOnG1028" transform="matrix(1.0,0.0,0.0,1.0,361.63196601125014,166.875)"><path id="ProcessOnPath1029" d="M0 0H58.0V16.25H0Z" fill="#fff" transform="matrix(1.0,0.0,0.0,1.0,-29.0,0.0)"/><text id="ProcessOnText1030" fill="#000000" font-size="13" x="0.0" y="13.325" font-family="微软雅黑" font-weight="normal" font-style="normal" text-decoration="none" family="微软雅黑" text-anchor="middle" size="13">__proto__</text></g></g><g id="ProcessOnG1031" transform="matrix(1.0,0.0,0.0,1.0,151.0,270.0)" opacity="1.0"><path id="ProcessOnPath1032" d="M0.0 4.0Q0.0 0.0 4.0 0.0L96.0 0.0Q100.0 0.0 100.0 4.0L100.0 66.0Q100.0 70.0 96.0 70.0L4.0 70.0Q0.0 70.0 0.0 66.0Z" stroke="#323232" stroke-width="2.0" stroke-dasharray="none" opacity="1.0" fill="#ffffff"/><g id="ProcessOnG1033" transform="matrix(1.0,0.0,0.0,1.0,10.0,26.875)"><text id="ProcessOnText1034" fill="#000000" font-size="13" x="39.0" y="13.325" font-family="微软雅黑" font-weight="normal" font-style="normal" text-decoration="none" family="微软雅黑" text-anchor="middle" size="13">Shape</text></g></g><g id="ProcessOnG1035"><path id="ProcessOnPath1036" d="M201.0 270.0L201.0 235.25L201.0 235.25L201.0 215.7360679774998" stroke="#323232" stroke-width="2.0" stroke-dasharray="none" fill="none" marker-end="url(#ProcessOnMarker1037)"/><g id="ProcessOnG1039" transform="matrix(1.0,0.0,0.0,1.0,201.0,234.74303398874991)"><path id="ProcessOnPath1040" d="M0 0H58.0V16.25H0Z" fill="#fff" transform="matrix(1.0,0.0,0.0,1.0,-29.0,0.0)"/><text id="ProcessOnText1041" fill="#000000" font-size="13" x="0.0" y="13.325" font-family="微软雅黑" font-weight="normal" font-style="normal" text-decoration="none" family="微软雅黑" text-anchor="middle" size="13">__proto__</text></g></g><g id="ProcessOnG1042"><path id="ProcessOnPath1043" d="M251.0 305.0L333.26573478745684 306.2656266890378" stroke="#323232" stroke-width="2.0" stroke-dasharray="none" fill="none" marker-end="url(#ProcessOnMarker1044)"/><g id="ProcessOnG1046" transform="matrix(1.0,0.0,0.0,1.0,292.1328673937284,297.5078133445189)"><path id="ProcessOnPath1047" d="M0 0H61.0V16.25H0Z" fill="#fff" transform="matrix(1.0,0.0,0.0,1.0,-30.5,0.0)"/><text id="ProcessOnText1048" fill="#000000" font-size="13" x="0.0" y="13.325" font-family="微软雅黑" font-weight="normal" font-style="normal" text-decoration="none" family="微软雅黑" text-anchor="middle" size="13">prototype</text></g></g><g id="ProcessOnG1049" transform="matrix(1.0,0.0,0.0,1.0,348.5,281.0)" opacity="1.0"><path id="ProcessOnPath1050" d="M0.0 4.0Q0.0 0.0 4.0 0.0L128.0 0.0Q132.0 0.0 132.0 4.0L132.0 47.0Q132.0 51.0 128.0 51.0L4.0 51.0Q0.0 51.0 0.0 47.0Z" stroke="#323232" stroke-width="2.0" stroke-dasharray="none" opacity="1.0" fill="#ffffff"/><g id="ProcessOnG1051" transform="matrix(1.0,0.0,0.0,1.0,10.0,17.375)"><text id="ProcessOnText1052" fill="#000000" font-size="13" x="55.0" y="13.325" font-family="微软雅黑" font-weight="normal" font-style="normal" text-decoration="none" family="微软雅黑" text-anchor="middle" size="13">Shape.prototype</text></g></g><g id="ProcessOnG1053" transform="matrix(1.0,0.0,0.0,1.0,151.0,396.0)" opacity="1.0"><path id="ProcessOnPath1054" d="M0.0 4.0Q0.0 0.0 4.0 0.0L96.0 0.0Q100.0 0.0 100.0 4.0L100.0 66.0Q100.0 70.0 96.0 70.0L4.0 70.0Q0.0 70.0 0.0 66.0Z" stroke="#323232" stroke-width="2.0" stroke-dasharray="none" opacity="1.0" fill="#ffffff"/><g id="ProcessOnG1055" transform="matrix(1.0,0.0,0.0,1.0,10.0,26.875)"><text id="ProcessOnText1056" fill="#000000" font-size="13" x="39.0" y="13.325" font-family="微软雅黑" font-weight="normal" font-style="normal" text-decoration="none" family="微软雅黑" text-anchor="middle" size="13">Triangle</text></g></g><g id="ProcessOnG1057"><path id="ProcessOnPath1058" d="M201.0 396.0L201.0 355.2360679774998" stroke="#323232" stroke-width="2.0" stroke-dasharray="none" fill="none" marker-end="url(#ProcessOnMarker1059)"/><g id="ProcessOnG1061" transform="matrix(1.0,0.0,0.0,1.0,201.0,367.49303398874986)"><path id="ProcessOnPath1062" d="M0 0H58.0V16.25H0Z" fill="#fff" transform="matrix(1.0,0.0,0.0,1.0,-29.0,0.0)"/><text id="ProcessOnText1063" fill="#000000" font-size="13" x="0.0" y="13.325" font-family="微软雅黑" font-weight="normal" font-style="normal" text-decoration="none" family="微软雅黑" text-anchor="middle" size="13">__proto__</text></g></g><g id="ProcessOnG1064" transform="matrix(1.0,0.0,0.0,1.0,151.0,536.0)" opacity="1.0"><path id="ProcessOnPath1065" d="M0.0 4.0Q0.0 0.0 4.0 0.0L96.0 0.0Q100.0 0.0 100.0 4.0L100.0 66.0Q100.0 70.0 96.0 70.0L4.0 70.0Q0.0 70.0 0.0 66.0Z" stroke="#323232" stroke-width="2.0" stroke-dasharray="none" opacity="1.0" fill="#ffffff"/><g id="ProcessOnG1066" transform="matrix(1.0,0.0,0.0,1.0,10.0,26.875)"><text id="ProcessOnText1067" fill="#000000" font-size="13" x="39.0" y="13.325" font-family="微软雅黑" font-weight="normal" font-style="normal" text-decoration="none" family="微软雅黑" text-anchor="middle" size="13">myTriangle</text></g></g><g id="ProcessOnG1068"><path id="ProcessOnPath1069" d="M251.0 431.0L447.34149198241823 562.5206166389405" stroke="#323232" stroke-width="2.0" stroke-dasharray="none" fill="none" marker-end="url(#ProcessOnMarker1070)"/><g id="ProcessOnG1072" transform="matrix(1.0,0.0,0.0,1.0,349.1707459912091,488.63530831947025)"><path id="ProcessOnPath1073" d="M0 0H61.0V16.25H0Z" fill="#fff" transform="matrix(1.0,0.0,0.0,1.0,-30.5,0.0)"/><text id="ProcessOnText1074" fill="#000000" font-size="13" x="0.0" y="13.325" font-family="微软雅黑" font-weight="normal" font-style="normal" text-decoration="none" family="微软雅黑" text-anchor="middle" size="13">prototype</text></g></g><g id="ProcessOnG1075" transform="matrix(1.0,0.0,0.0,1.0,460.0,543.0)" opacity="1.0"><path id="ProcessOnPath1076" d="M0.0 4.0Q0.0 0.0 4.0 0.0L137.0 0.0Q141.0 0.0 141.0 4.0L141.0 52.0Q141.0 56.0 137.0 56.0L4.0 56.0Q0.0 56.0 0.0 52.0Z" stroke="#323232" stroke-width="2.0" stroke-dasharray="none" opacity="1.0" fill="#ffffff"/><g id="ProcessOnG1077" transform="matrix(1.0,0.0,0.0,1.0,10.0,19.875)"><text id="ProcessOnText1078" fill="#000000" font-size="13" x="59.5" y="13.325" font-family="微软雅黑" font-weight="normal" font-style="normal" text-decoration="none" family="微软雅黑" text-anchor="middle" size="13">Triangle.prototype</text></g></g><g id="ProcessOnG1079"><path id="ProcessOnPath1080" d="M251.0 571.0L444.7639320225002 571.0" stroke="#323232" stroke-width="2.0" stroke-dasharray="none" fill="none" marker-end="url(#ProcessOnMarker1081)"/><g id="ProcessOnG1083" transform="matrix(1.0,0.0,0.0,1.0,347.88196601125014,562.875)"><path id="ProcessOnPath1084" d="M0 0H58.0V16.25H0Z" fill="#fff" transform="matrix(1.0,0.0,0.0,1.0,-29.0,0.0)"/><text id="ProcessOnText1085" fill="#000000" font-size="13" x="0.0" y="13.325" font-family="微软雅黑" font-weight="normal" font-style="normal" text-decoration="none" family="微软雅黑" text-anchor="middle" size="13">__proto__</text></g></g><g id="ProcessOnG1086"><path id="ProcessOnPath1087" d="M530.5 543.0L421.8401176548654 345.35142090669484" stroke="#323232" stroke-width="2.0" stroke-dasharray="none" fill="none" marker-end="url(#ProcessOnMarker1088)"/><g id="ProcessOnG1090" transform="matrix(1.0,0.0,0.0,1.0,476.17005882743274,436.0507104533474)"><path id="ProcessOnPath1091" d="M0 0H107.0V16.25H0Z" fill="#fff" transform="matrix(1.0,0.0,0.0,1.0,-53.5,0.0)"/><text id="ProcessOnText1092" fill="#000000" font-size="13" x="0.0" y="13.325" font-family="微软雅黑" font-weight="normal" font-style="normal" text-decoration="none" family="微软雅黑" text-anchor="middle" size="13">extend: __proto__</text></g></g><g id="ProcessOnG1093"><path id="ProcessOnPath1094" d="M151.0 431.0L91.0 431.0L91.0 305.0L135.7639320225002 305.0" stroke="#323232" stroke-width="2.0" stroke-dasharray="none" fill="none" marker-end="url(#ProcessOnMarker1095)"/><g id="ProcessOnG1097" transform="matrix(1.0,0.0,0.0,1.0,91.0,367.4930339887499)"><path id="ProcessOnPath1098" d="M0 0H143.0V16.25H0Z" fill="#fff" transform="matrix(1.0,0.0,0.0,1.0,-71.5,0.0)"/><text id="ProcessOnText1099" fill="#000000" font-size="13" x="0.0" y="13.325" font-family="微软雅黑" font-weight="normal" font-style="normal" text-decoration="none" family="微软雅黑" text-anchor="middle" size="13">extend/setPrototypeOf</text></g></g><g id="ProcessOnG1100" transform="matrix(1.0,0.0,0.0,1.0,727.5,542.0)" opacity="1.0"><path id="ProcessOnPath1101" d="M0.0 4.0Q0.0 0.0 4.0 0.0L121.5 0.0Q125.5 0.0 125.5 4.0L125.5 54.0Q125.5 58.0 121.5 58.0L4.0 58.0Q0.0 58.0 0.0 54.0Z" stroke="#323232" stroke-width="2.0" stroke-dasharray="none" opacity="1.0" fill="#ffffff"/><g id="ProcessOnG1102" transform="matrix(1.0,0.0,0.0,1.0,10.0,4.625)"><text id="ProcessOnText1103" fill="#000000" font-size="13" x="51.75" y="13.325" font-family="微软雅黑" font-weight="normal" font-style="normal" text-decoration="none" family="微软雅黑" text-anchor="middle" size="13">对象字面量/或通</text><text id="ProcessOnText1104" fill="#000000" font-size="13" x="51.75" y="29.575" font-family="微软雅黑" font-weight="normal" font-style="normal" text-decoration="none" family="微软雅黑" text-anchor="middle" size="13">过new Object出</text><text id="ProcessOnText1105" fill="#000000" font-size="13" x="51.75" y="45.825" font-family="微软雅黑" font-weight="normal" font-style="normal" text-decoration="none" family="微软雅黑" text-anchor="middle" size="13">来的对象</text></g></g><g id="ProcessOnG1106"><path id="ProcessOnPath1107" d="M790.25 542.0L539.7323769573759 213.12027157830673" stroke="#323232" stroke-width="2.0" stroke-dasharray="none" fill="none" marker-end="url(#ProcessOnMarker1108)"/><g id="ProcessOnG1110" transform="matrix(1.0,0.0,0.0,1.0,664.991188478688,369.4351357891534)"><path id="ProcessOnPath1111" d="M0 0H58.0V16.25H0Z" fill="#fff" transform="matrix(1.0,0.0,0.0,1.0,-29.0,0.0)"/><text id="ProcessOnText1112" fill="#000000" font-size="13" x="0.0" y="13.325" font-family="微软雅黑" font-weight="normal" font-style="normal" text-decoration="none" family="微软雅黑" text-anchor="middle" size="13">__proto__</text></g></g><g id="ProcessOnG1113" transform="matrix(1.0,0.0,0.0,1.0,689.0,147.0)" opacity="1.0"><path id="ProcessOnPath1114" d="M0.0 4.0Q0.0 0.0 4.0 0.0L144.0 0.0Q148.0 0.0 148.0 4.0L148.0 52.0Q148.0 56.0 144.0 56.0L4.0 56.0Q0.0 56.0 0.0 52.0Z" stroke="#323232" stroke-width="2.0" stroke-dasharray="none" opacity="1.0" fill="#ffffff"/><g id="ProcessOnG1115" transform="matrix(1.0,0.0,0.0,1.0,10.0,11.75)"><text id="ProcessOnText1116" fill="#000000" font-size="13" x="63.0" y="13.325" font-family="微软雅黑" font-weight="normal" font-style="normal" text-decoration="none" family="微软雅黑" text-anchor="middle" size="13">Array.prototype</text><text id="ProcessOnText1117" fill="#000000" font-size="13" x="63.0" y="29.575" font-family="微软雅黑" font-weight="normal" font-style="normal" text-decoration="none" family="微软雅黑" text-anchor="middle" size="13">（Date等其他同理）</text></g></g><g id="ProcessOnG1118"><path id="ProcessOnPath1119" d="M689.0 175.0L612.7360679774998 175.0" stroke="#323232" stroke-width="2.0" stroke-dasharray="none" fill="none" marker-end="url(#ProcessOnMarker1120)"/><g id="ProcessOnG1122" transform="matrix(1.0,0.0,0.0,1.0,650.8680339887499,166.875)"><path id="ProcessOnPath1123" d="M0 0H58.0V16.25H0Z" fill="#fff" transform="matrix(1.0,0.0,0.0,1.0,-29.0,0.0)"/><text id="ProcessOnText1124" fill="#000000" font-size="13" x="0.0" y="13.325" font-family="微软雅黑" font-weight="normal" font-style="normal" text-decoration="none" family="微软雅黑" text-anchor="middle" size="13">__proto__</text></g></g><g id="ProcessOnG1125" transform="matrix(1.0,0.0,0.0,1.0,688.5,273.0)" opacity="1.0"><path id="ProcessOnPath1126" d="M0.0 4.0Q0.0 0.0 4.0 0.0L145.0 0.0Q149.0 0.0 149.0 4.0L149.0 63.0Q149.0 67.0 145.0 67.0L4.0 67.0Q0.0 67.0 0.0 63.0Z" stroke="#323232" stroke-width="2.0" stroke-dasharray="none" opacity="1.0" fill="#ffffff"/><g id="ProcessOnG1127" transform="matrix(1.0,0.0,0.0,1.0,10.0,9.125)"><text id="ProcessOnText1128" fill="#000000" font-size="13" x="63.5" y="13.325" font-family="微软雅黑" font-weight="normal" font-style="normal" text-decoration="none" family="微软雅黑" text-anchor="middle" size="13">数组字面量，通过ne</text><text id="ProcessOnText1129" fill="#000000" font-size="13" x="63.5" y="29.575" font-family="微软雅黑" font-weight="normal" font-style="normal" text-decoration="none" family="微软雅黑" text-anchor="middle" size="13">w Array出来的数组</text><text id="ProcessOnText1130" fill="#000000" font-size="13" x="63.5" y="45.825" font-family="微软雅黑" font-weight="normal" font-style="normal" text-decoration="none" family="微软雅黑" text-anchor="middle" size="13">（Date等其他同理）</text></g></g><g id="ProcessOnG1131"><path id="ProcessOnPath1132" d="M763.0 273.0L763.0 218.2360679774998" stroke="#323232" stroke-width="2.0" stroke-dasharray="none" fill="none" marker-end="url(#ProcessOnMarker1133)"/><g id="ProcessOnG1135" transform="matrix(1.0,0.0,0.0,1.0,763.0,237.49303398874991)"><path id="ProcessOnPath1136" d="M0 0H58.0V16.25H0Z" fill="#fff" transform="matrix(1.0,0.0,0.0,1.0,-29.0,0.0)"/><text id="ProcessOnText1137" fill="#000000" font-size="13" x="0.0" y="13.325" font-family="微软雅黑" font-weight="normal" font-style="normal" text-decoration="none" family="微软雅黑" text-anchor="middle" size="13">__proto__</text></g></g><g id="ProcessOnG1138"><path id="ProcessOnPath1139" d="M201.0 466.0L201.0 520.7639320225002" stroke="#323232" stroke-width="2.0" stroke-dasharray="none" fill="none" marker-end="url(#ProcessOnMarker1140)"/><g id="ProcessOnG1142" transform="matrix(1.0,0.0,0.0,1.0,201.0,485.2569660112501)"><path id="ProcessOnPath1143" d="M0 0H25.0V16.25H0Z" fill="#fff" transform="matrix(1.0,0.0,0.0,1.0,-12.5,0.0)"/><text id="ProcessOnText1144" fill="#000000" font-size="13" x="0.0" y="13.325" font-family="微软雅黑" font-weight="normal" font-style="normal" text-decoration="none" family="微软雅黑" text-anchor="middle" size="13">new</text></g></g><g id="ProcessOnG1145"><path id="ProcessOnPath1146" d="M530.5 543.0L530.5 372.0L530.5 372.0L530.5 216.2360679774998" stroke="#323232" stroke-width="2.0" stroke-dasharray="none" fill="none" marker-end="url(#ProcessOnMarker1147)"/><g id="ProcessOnG1149" transform="matrix(1.0,0.0,0.0,1.0,530.5,371.4930339887499)"><path id="ProcessOnPath1150" d="M0 0H160.0V16.25H0Z" fill="#fff" transform="matrix(1.0,0.0,0.0,1.0,-80.0,0.0)"/><text id="ProcessOnText1151" fill="#000000" font-size="13" x="0.0" y="13.325" font-family="微软雅黑" font-weight="normal" font-style="normal" text-decoration="none" family="微软雅黑" text-anchor="middle" size="13">setPrototypeOf: __proto__</text></g></g><g id="ProcessOnG1152" transform="matrix(1.0,0.0,0.0,1.0,337.0,664.0)" opacity="1.0"><path id="ProcessOnPath1153" d="M0.0 4.0Q0.0 0.0 4.0 0.0L96.0 0.0Q100.0 0.0 100.0 4.0L100.0 66.0Q100.0 70.0 96.0 70.0L4.0 70.0Q0.0 70.0 0.0 66.0Z" stroke="#323232" stroke-width="2.0" stroke-dasharray="none" opacity="1.0" fill="#ffffff"/><g id="ProcessOnG1154" transform="matrix(1.0,0.0,0.0,1.0,10.0,26.875)"><text id="ProcessOnText1155" fill="#000000" font-size="13" x="39.0" y="13.325" font-family="微软雅黑" font-weight="normal" font-style="normal" text-decoration="none" family="微软雅黑" text-anchor="middle" size="13">obj</text></g></g><g id="ProcessOnG1156" transform="matrix(1.0,0.0,0.0,1.0,570.0,668.5)" opacity="1.0"><path id="ProcessOnPath1157" d="M0.0 4.0Q0.0 0.0 4.0 0.0L128.0 0.0Q132.0 0.0 132.0 4.0L132.0 57.0Q132.0 61.0 128.0 61.0L4.0 61.0Q0.0 61.0 0.0 57.0Z" stroke="#323232" stroke-width="2.0" stroke-dasharray="none" opacity="1.0" fill="#ffffff"/><g id="ProcessOnG1158" transform="matrix(1.0,0.0,0.0,1.0,10.0,22.375)"><text id="ProcessOnText1159" fill="#000000" font-size="13" x="55.0" y="13.325" font-family="微软雅黑" font-weight="normal" font-style="normal" text-decoration="none" family="微软雅黑" text-anchor="middle" size="13">Object.create(obj)</text></g></g><g id="ProcessOnG1160"><path id="ProcessOnPath1161" d="M570.0 699.0L503.5 699.0L503.5 699.0L452.2360679774998 699.0" stroke="#323232" stroke-width="2.0" stroke-dasharray="none" fill="none" marker-end="url(#ProcessOnMarker1162)"/><g id="ProcessOnG1164" transform="matrix(1.0,0.0,0.0,1.0,511.11803398874986,690.875)"><path id="ProcessOnPath1165" d="M0 0H58.0V16.25H0Z" fill="#fff" transform="matrix(1.0,0.0,0.0,1.0,-29.0,0.0)"/><text id="ProcessOnText1166" fill="#000000" font-size="13" x="0.0" y="13.325" font-family="微软雅黑" font-weight="normal" font-style="normal" text-decoration="none" family="微软雅黑" text-anchor="middle" size="13">__proto__</text></g></g></g></g></svg>